<svg xmlns="http://www.w3.org/2000/svg" viewBox="0 0 18 18" shape-rendering="crispEdges"><rect x="2" y="0" width="2" height="1" fill="#603c26"/><rect x="14" y="0" width="2" height="1" fill="#603c26"/><rect x="1" y="1" width="4" height="1" fill="#603c26"/><rect x="13" y="1" width="4" height="1" fill="#603c26"/><rect x="1" y="2" width="1" height="1" fill="#603c26"/><rect x="2" y="2" width="1" height="1" fill="#e296a2"/><rect x="3" y="2" width="2" height="1" fill="#603c26"/><rect x="13" y="2" width="2" height="1" fill="#603c26"/><rect x="15" y="2" width="1" height="1" fill="#e296a2"/><rect x="16" y="2" width="1" height="1" fill="#603c26"/><rect x="1" y="3" width="2" height="1" fill="#603c26"/><rect x="3" y="3" width="1" height="1" fill="#e296a2"/><rect x="4" y="3" width="1" height="1" fill="#603c26"/><rect x="5" y="3" width="1" height="1" fill="#91603a"/><rect x="12" y="3" width="1" height="1" fill="#91603a"/><rect x="13" y="3" width="1" height="1" fill="#603c26"/><rect x="14" y="3" width="1" height="1" fill="#e296a2"/><rect x="15" y="3" width="2" height="1" fill="#603c26"/><rect x="2" y="4" width="2" height="1" fill="#603c26"/><rect x="4" y="4" width="1" height="1" fill="#91603a"/><rect x="5" y="4" width="9" height="1" fill="#c89868"/><rect x="14" y="4" width="1" height="1" fill="#91603a"/><rect x="15" y="4" width="2" height="1" fill="#603c26"/><rect x="3" y="5" width="1" height="1" fill="#91603a"/><rect x="4" y="5" width="11" height="1" fill="#c89868"/><rect x="15" y="5" width="1" height="1" fill="#91603a"/><rect x="2" y="6" width="1" height="1" fill="#91603a"/><rect x="3" y="6" width="2" height="1" fill="#c89868"/><rect x="5" y="6" width="9" height="1" fill="#e2c096"/><rect x="14" y="6" width="2" height="1" fill="#c89868"/><rect x="16" y="6" width="1" height="1" fill="#91603a"/><rect x="1" y="7" width="1" height="1" fill="#91603a"/><rect x="2" y="7" width="2" height="1" fill="#c89868"/><rect x="4" y="7" width="12" height="1" fill="#e2c096"/><rect x="16" y="7" width="1" height="1" fill="#91603a"/><rect x="1" y="8" width="1" height="1" fill="#91603a"/><rect x="2" y="8" width="1" height="1" fill="#c89868"/><rect x="3" y="8" width="2" height="1" fill="#e2c096"/><rect x="5" y="8" width="2" height="1" fill="#221c18"/><rect x="7" y="8" width="4" height="1" fill="#e2c096"/><rect x="11" y="8" width="2" height="1" fill="#221c18"/><rect x="13" y="8" width="3" height="1" fill="#e2c096"/><rect x="16" y="8" width="1" height="1" fill="#c89868"/><rect x="17" y="8" width="1" height="1" fill="#91603a"/><rect x="1" y="9" width="1" height="1" fill="#91603a"/><rect x="2" y="9" width="1" height="1" fill="#c89868"/><rect x="3" y="9" width="2" height="1" fill="#e2c096"/><rect x="5" y="9" width="1" height="1" fill="#221c18"/><rect x="6" y="9" width="1" height="1" fill="#ffffff"/><rect x="7" y="9" width="4" height="1" fill="#e2c096"/><rect x="11" y="9" width="1" height="1" fill="#221c18"/><rect x="12" y="9" width="1" height="1" fill="#ffffff"/><rect x="13" y="9" width="2" height="1" fill="#e2c096"/><rect x="15" y="9" width="1" height="1" fill="#c89868"/><rect x="16" y="9" width="1" height="1" fill="#91603a"/><rect x="1" y="10" width="1" height="1" fill="#91603a"/><rect x="2" y="10" width="2" height="1" fill="#c89868"/><rect x="4" y="10" width="10" height="1" fill="#e2c096"/><rect x="14" y="10" width="2" height="1" fill="#c89868"/><rect x="16" y="10" width="1" height="1" fill="#91603a"/><rect x="1" y="11" width="2" height="1" fill="#91603a"/><rect x="3" y="11" width="4" height="1" fill="#c89868"/><rect x="7" y="11" width="4" height="1" fill="#f0e2ce"/><rect x="11" y="11" width="4" height="1" fill="#c89868"/><rect x="15" y="11" width="2" height="1" fill="#91603a"/><rect x="2" y="12" width="1" height="1" fill="#91603a"/><rect x="3" y="12" width="2" height="1" fill="#c89868"/><rect x="5" y="12" width="8" height="1" fill="#f0e2ce"/><rect x="13" y="12" width="2" height="1" fill="#c89868"/><rect x="15" y="12" width="1" height="1" fill="#91603a"/><rect x="2" y="13" width="1" height="1" fill="#91603a"/><rect x="3" y="13" width="2" height="1" fill="#c89868"/><rect x="5" y="13" width="3" height="1" fill="#f0e2ce"/><rect x="8" y="13" width="2" height="1" fill="#221c18"/><rect x="10" y="13" width="3" height="1" fill="#f0e2ce"/><rect x="13" y="13" width="2" height="1" fill="#c89868"/><rect x="15" y="13" width="1" height="1" fill="#91603a"/><rect x="3" y="14" width="1" height="1" fill="#91603a"/><rect x="4" y="14" width="2" height="1" fill="#c89868"/><rect x="6" y="14" width="2" height="1" fill="#f0e2ce"/><rect x="8" y="14" width="2" height="1" fill="#221c18"/><rect x="10" y="14" width="2" height="1" fill="#f0e2ce"/><rect x="12" y="14" width="2" height="1" fill="#c89868"/><rect x="14" y="14" width="1" height="1" fill="#91603a"/><rect x="3" y="15" width="2" height="1" fill="#91603a"/><rect x="5" y="15" width="2" height="1" fill="#c89868"/><rect x="7" y="15" width="1" height="1" fill="#f0e2ce"/><rect x="8" y="15" width="2" height="1" fill="#e296a2"/><rect x="10" y="15" width="1" height="1" fill="#f0e2ce"/><rect x="11" y="15" width="2" height="1" fill="#c89868"/><rect x="13" y="15" width="2" height="1" fill="#91603a"/><rect x="4" y="16" width="1" height="1" fill="#91603a"/><rect x="5" y="16" width="2" height="1" fill="#c89868"/><rect x="7" y="16" width="4" height="1" fill="#f0e2ce"/><rect x="11" y="16" width="2" height="1" fill="#c89868"/><rect x="13" y="16" width="1" height="1" fill="#91603a"/><rect x="5" y="17" width="2" height="1" fill="#91603a"/><rect x="7" y="17" width="3" height="1" fill="#c89868"/><rect x="10" y="17" width="2" height="1" fill="#91603a"/></svg>